<svg width="129" height="22" viewBox="0 0 129 22" fill="none" xmlns="http://www.w3.org/2000/svg">
<rect x="5.80469" y="0.322754" width="10.6667" height="5.33333" fill="black"/>
<rect x="0.457031" y="5.65601" width="5.33333" height="5.33333" fill="black"/>
<rect x="5.82617" y="8.32275" width="10.6667" height="2.66667" fill="black"/>
<rect x="3.13867" y="10.9895" width="2.66667" height="10.6667" fill="black"/>
<rect x="5.82617" y="13.6184" width="5.33333" height="2.66667" fill="black"/>
<rect x="16.4922" y="13.6184" width="2.66667" height="2.66667" fill="black"/>
<rect x="5.78906" y="18.9895" width="2.66667" height="2.66667" fill="black"/>
<rect x="13.8633" y="18.9895" width="2.66667" height="2.66667" fill="black"/>
<rect x="13.8633" y="10.9517" width="8" height="2.66667" fill="black"/>
<rect x="16.5293" y="5.61841" width="5.33333" height="5.33333" fill="black"/>
<path d="M128.492 21.521H123.221V5.75342H128.492V21.521Z" fill="black"/>
<path d="M112.857 21.521H107.586V5.75342H112.857V11.9703H116.371V5.75342H121.642V21.521H116.371V15.2815H112.857V21.521Z" fill="black"/>
<path d="M91.709 21.521V5.75342H100.156C101.267 5.75342 102.131 5.79096 102.746 5.86604C103.812 6.01621 104.608 6.38412 105.134 6.96977C105.675 7.55542 105.945 8.35131 105.945 9.35743V10.1909C105.945 10.9417 105.765 11.5799 105.404 12.1055C105.059 12.6311 104.533 13.0215 103.827 13.2768V13.3669C105.404 13.8775 106.193 15.0713 106.193 16.9484V17.6241C106.193 18.7504 105.93 19.6289 105.404 20.2596C104.879 20.8752 104.075 21.2582 102.994 21.4083C102.378 21.4834 101.515 21.521 100.404 21.521H91.709ZM99.2999 11.9703C99.8405 11.9703 100.223 11.9178 100.449 11.8127C100.959 11.5424 101.215 11.0543 101.215 10.3485C101.215 9.65776 100.959 9.17723 100.449 8.90693C100.223 8.80181 99.8405 8.74925 99.2999 8.74925H97.0925V11.9703H99.2999ZM99.2999 18.4801C99.8405 18.4801 100.223 18.42 100.449 18.2999C100.959 18.0296 101.215 17.5115 101.215 16.7456C101.215 15.9948 100.959 15.4842 100.449 15.2139C100.223 15.0938 99.8405 15.0337 99.2999 15.0337H97.0925V18.4801H99.2999Z" fill="black"/>
<path d="M83.3409 21.6562C81.5689 21.6562 80.2024 21.5511 79.2413 21.3409C78.2803 21.1307 77.5595 20.6952 77.0789 20.0344C76.5984 19.3587 76.3807 18.33 76.4257 16.9485C76.4557 16.2127 76.4708 15.109 76.4708 13.6373C76.4708 12.1657 76.4557 11.062 76.4257 10.3261C76.3807 8.94461 76.5984 7.91596 77.0789 7.24021C77.5745 6.56446 78.3028 6.12898 79.2639 5.93376C80.2249 5.72353 81.5839 5.61841 83.3409 5.61841C85.0979 5.61841 86.4569 5.72353 87.4179 5.93376C88.379 6.12898 89.0998 6.56446 89.5803 7.24021C90.0759 7.91596 90.3011 8.94461 90.2561 10.3261C90.2261 11.062 90.211 12.1657 90.211 13.6373C90.211 15.109 90.2261 16.2127 90.2561 16.9485C90.3011 18.33 90.0834 19.3587 89.6029 20.0344C89.1223 20.6952 88.4015 21.1307 87.4405 21.3409C86.4794 21.5511 85.1129 21.6562 83.3409 21.6562ZM83.3409 19.0433C83.8815 19.0433 84.2794 18.8857 84.5347 18.5703C84.79 18.255 84.9177 17.7369 84.9177 17.0161L84.8951 13.6373L84.9177 10.2811C84.9177 9.56029 84.79 9.04222 84.5347 8.72687C84.2794 8.41152 83.8815 8.25384 83.3409 8.25384C82.8003 8.25384 82.4024 8.41152 82.1471 8.72687C81.8918 9.04222 81.7642 9.56029 81.7642 10.2811L81.7867 13.6373L81.7642 17.0161C81.7642 17.7369 81.8918 18.255 82.1471 18.5703C82.4024 18.8857 82.8003 19.0433 83.3409 19.0433Z" fill="black"/>
<path d="M66.1771 21.521H60.9062V5.75342H66.1771V11.9703H69.691V5.75342H74.9619V21.521H69.691V15.2815H66.1771V21.521Z" fill="black"/>
<path d="M48.8303 5.75342H55.9257L59.7775 21.521H54.4841L54.0336 19.6739H49.7538L49.2808 21.521H44.9785L48.8303 5.75342ZM53.3578 16.5429L51.9388 10.8216H51.8487L50.4296 16.5429H53.3578Z" fill="black"/>
<path d="M43.8566 21.521H22.8633V5.75342H28.1341V18.39H30.7245V5.75342H35.9954V18.39H38.5858V5.75342H43.8566V21.521Z" fill="black"/>
</svg>
