<svg width="46" height="32" viewBox="0 0 46 32" fill="none" xmlns="http://www.w3.org/2000/svg">
<g clip-path="url(#clip0_53_2888)">
<path d="M12.3338 15.4594C13.0453 14.8586 13.1975 13.6936 14.614 12.883C15.9875 12.3144 16.267 12.5412 17.8148 12.2108C17.8801 12.1077 19.3619 12.1976 19.4761 12.9175C19.7006 13.5002 19.5954 13.9099 19.5669 14.244C19.4659 15.1142 19.2072 15.4676 19.1177 15.8948C18.839 16.805 18.3858 16.4463 17.7435 17.24C16.934 17.9094 16.4474 18.2252 15.4447 18.2838C14.9796 18.0939 14.0646 19.0136 13.2212 17.8476C13.2158 16.6325 13.8915 16.0991 14.2529 15.7088C15.1539 15.0716 16.1129 14.9678 16.7705 14.8514C16.9645 14.8199 17.1077 14.7955 17.2301 14.7843C17.3445 14.7737 17.3541 14.8717 17.2478 14.9164C16.9615 15.0446 16.5443 15.2083 16.0491 15.5046C15.3753 16.1502 14.8141 15.7323 14.148 16.7467C13.5616 18.3291 14.008 17.27 15.6247 17.2836C16.8916 16.8438 17.4197 16.1861 18.1339 14.72C18.7888 12.5558 18.2338 13.6952 16.3431 14.3461C14.9299 14.7868 12.1699 17.3502 12.1949 17.9436C11.8522 18.7853 13.5866 19.8147 14.6972 19.1547C16.4125 18.3364 18.8044 16.7908 19.7556 15.9087C20.5017 14.6478 20.3525 11.0303 19.0474 10.9092C17.7528 10.9012 17.2733 10.7162 16.1 11.2542C15.4006 11.5612 14.5278 12.0266 13.7483 12.5262C13.3586 12.7664 13.3517 12.6159 13.6666 12.2699C14.1269 11.7732 14.6075 11.4582 14.8765 11.1765C15.4197 10.6116 15.6053 10.3561 16.624 10.2516C17.6867 10.242 17.9475 9.92825 18.4352 9.89775C18.8418 10.0642 19.9507 9.22551 21.325 12.1508C21.8194 14.9052 21.4046 16.9516 20.3491 17.6609C19.4181 18.3559 17.8952 19.1681 16.2797 20.1056C15.4391 21.6317 9.47838 20.2433 10.5351 17.6015C11.0161 15.7059 11.5636 16.0697 12.3338 15.4594Z" fill="#8A909A"/>
<path d="M27.0854 15.2112C27.2522 15.3348 27.3428 14.7035 27.6239 14.762C27.873 14.8234 27.9402 15.1399 28.2071 15.042C28.474 14.9442 28.7669 15.1376 28.8729 14.9943C28.9777 14.8509 29.0342 15.2474 29.1864 15.1404C29.318 15.0308 29.5076 15.0714 29.6522 15.1941C29.8129 15.3154 30.2826 15.4049 30.4428 15.237C30.6065 15.0686 30.7921 15.3378 30.9266 15.3905C30.9719 15.4079 31.0006 15.4364 31.0228 15.4654C31.0438 15.4931 31.0391 15.5887 31.018 15.596C30.959 15.614 30.8957 15.675 30.7886 15.7958C30.6082 16.0213 30.5747 15.7855 30.323 15.9082C30.0715 16.0308 29.9267 16.2572 29.6244 16.1308C29.3439 15.9999 29.3289 16.6209 28.8646 16.3229C28.4062 16.0271 28.4205 16.6513 28.01 16.7744C27.6374 16.8929 26.9796 16.6231 26.7596 16.6609C26.5297 16.7057 26.1257 16.8184 25.7817 16.7475C25.4428 16.6824 24.9116 16.9203 24.6168 16.7954C24.1859 16.7043 23.5624 16.524 23.3112 16.4021C23.0475 16.2805 22.9844 16.253 22.7324 16.3308C22.5885 16.3755 22.3872 16.3354 22.2187 16.1751C22.1333 16.0944 22.1531 15.9819 22.238 15.928C22.3627 15.849 22.4644 15.901 22.5278 15.7601C22.6547 15.4784 22.707 15.3703 22.8704 15.5326C23.0326 15.6948 23.1061 15.3224 23.2003 15.3642C23.2932 15.4059 23.3006 15.6261 23.769 15.4504C24.2183 15.2718 24.3554 15.1887 24.6733 15.1311C24.8122 15.0857 25.2227 15.2481 25.5174 15.1637C25.8319 15.0812 26.3749 15.1044 26.6325 14.971C26.8696 14.8407 26.9211 15.0854 27.0854 15.2112Z" fill="#8A909A"/>
<path d="M26.5625 16.5398C26.4424 16.8316 27.0579 16.8021 27.0166 17.2303C26.9591 17.5909 26.6362 17.6394 26.7188 17.9934C26.7996 18.3461 26.5815 18.6942 26.7146 18.85C26.8457 19.0288 26.4471 19.0377 26.521 19.2739C26.593 19.5132 26.5232 19.6485 26.3768 19.8155C26.2311 19.9777 26.081 20.5653 26.2446 20.7646C26.3999 20.9447 26.1608 21.2419 26.0573 21.3871C26.0299 21.4267 25.998 21.4554 25.966 21.4789C25.9357 21.5009 25.8409 21.4864 25.837 21.4576C25.8252 21.3786 25.8006 21.2652 25.6821 21.1611C25.4606 20.9878 25.6842 20.8872 25.5832 20.5625C25.4852 20.22 25.2764 20.0232 25.4573 19.6251C25.6362 19.2505 25.0596 19.1871 25.3918 18.6848C25.724 18.1546 25.103 18.0912 24.998 17.6108C24.89 17.2373 25.1486 16.3715 25.0993 16.1068C25.0434 15.7991 24.9191 15.4235 24.9349 14.9409C24.9521 14.4673 24.6888 13.8737 24.8212 13.3433C24.95 12.8139 25.1422 12.0969 25.2742 11.7682C25.4059 11.4398 25.4361 11.3614 25.3732 11.0397C25.3391 10.8547 25.3845 10.5962 25.5855 10.3904C25.6921 10.2937 25.7876 10.3676 25.8236 10.4611C25.8793 10.6048 25.8219 10.7313 25.957 10.8167C26.2287 10.989 26.3336 11.0571 26.1627 11.2507C25.9921 11.4456 26.3613 11.5513 26.3156 11.6663C26.2708 11.7812 26.0477 11.7775 26.2121 12.3726C26.3786 12.966 26.4335 13.2806 26.4832 13.4927C26.5323 13.7114 26.3748 14.1637 26.4881 14.5113C26.5979 14.8433 26.6503 15.6377 26.7865 15.9476C26.9273 16.2569 26.6817 16.28 26.5625 16.5398Z" fill="#8A909A"/>
<path d="M25.5469 15.336C25.7953 15.2892 25.4933 14.7351 25.7535 14.6042C26.0157 14.473 26.2659 14.6765 26.4587 14.4097C26.6635 14.1348 27.0506 14.1134 27.0528 13.9368C27.0504 13.7647 27.3237 14.0571 27.3915 13.8663C27.4563 13.6763 27.5698 13.6312 27.7779 13.5982C27.9822 13.5699 28.43 13.2385 28.4177 13.0153C28.3896 12.7911 28.798 12.7391 28.9083 12.7309C28.9425 12.7224 28.9815 12.7136 29.019 12.7092C29.0545 12.705 29.1331 12.7599 29.1258 12.7846C29.113 12.8512 29.0516 12.9772 29.0769 13.1224C29.1123 13.4021 28.9282 13.2921 28.8025 13.58C28.6945 13.8624 28.7426 14.1421 28.4013 14.299C28.0637 14.4441 28.4164 14.9649 27.7793 15.0508C27.1933 15.0914 27.5693 15.5868 27.3085 15.9416C27.0483 16.2994 26.3643 16.4991 26.1307 16.7276C25.9037 16.9558 25.6455 17.2436 25.2805 17.4265C24.9201 17.6065 24.6456 18.0869 24.2206 18.2426C23.7853 18.3991 23.2527 18.6549 22.9431 18.7907C22.6441 18.909 22.5764 18.9364 22.4135 19.1861C22.3176 19.3274 22.1143 19.4632 21.8335 19.4298C21.6788 19.3998 21.7292 19.2675 21.7408 19.1998C21.7901 19.0821 21.9102 19.0484 21.8716 18.8986C21.7926 18.5982 21.7571 18.4856 21.9937 18.4902C22.2318 18.4924 22.0366 18.1637 22.1374 18.1255C22.2464 18.0794 22.3667 18.2663 22.6631 17.7364C22.9786 17.2123 23.1924 16.9998 23.3285 16.8356C23.4678 16.6713 23.9125 16.5634 24.1331 16.2997C24.3523 16.0372 24.9361 15.6675 25.0365 15.4335C25.1385 15.1979 25.3002 15.3796 25.5469 15.336Z" fill="#8A909A"/>
<path d="M27.1071 15.9771C27.1372 16.2244 27.7122 15.9663 27.809 16.2182C27.907 16.472 27.6822 16.7024 27.9274 16.895C28.1764 17.0917 28.183 17.489 28.3719 17.5492C28.567 17.617 28.2148 17.8112 28.3853 17.9198C28.5526 18.0237 28.5739 18.1475 28.5518 18.3779C28.5367 18.674 28.6323 18.9898 28.8916 19.0216C29.1159 19.0239 29.0391 19.296 29.1475 19.4877C29.1641 19.5367 29.1604 19.5792 29.1514 19.6159C29.1426 19.6508 29.0616 19.702 29.0432 19.6892C28.9861 19.6443 28.9298 19.663 28.7514 19.6685C28.4517 19.6981 28.5657 19.4891 28.3053 19.3685C28.0151 19.2599 27.651 18.9647 27.697 18.7624C27.6825 18.4634 27.0715 18.6018 27.1771 18.1322C27.2299 17.6099 26.6916 17.9462 26.3593 17.6677C26.0165 17.379 25.9213 16.7366 25.7238 16.552C25.5281 16.3704 25.2374 16.141 25.0636 15.8453C24.8843 15.5497 24.3632 15.3346 24.1728 14.932C23.9768 14.5266 23.6815 13.9573 23.5874 13.6673C23.4917 13.3807 23.4662 13.311 23.2299 13.1734C23.0938 13.0945 22.982 12.922 22.9636 12.6855C22.9538 12.5664 23.0432 12.4954 23.1478 12.5194C23.3006 12.555 23.3419 12.671 23.4907 12.6214C23.7888 12.5234 23.9112 12.495 23.9131 12.7351C23.9139 12.9743 24.2409 12.7808 24.2784 12.8842C24.316 12.9864 24.1515 13.1399 24.6162 13.3806C25.0844 13.6222 25.3111 13.7869 25.4739 13.8934C25.6393 14.0021 25.7753 14.4062 26.0551 14.5812C26.3568 14.7713 26.7535 15.3231 27.0054 15.4432C27.2613 15.5679 27.0755 15.7284 27.1071 15.9771Z" fill="#8A909A"/>
<path d="M33.1696 16.0314C33.2209 16.2583 33.2447 16.333 33.2604 16.3824L32.7602 15.2859C32.7683 15.3362 32.7762 15.3609 32.7842 15.3859C32.8 15.4357 32.816 15.4857 32.8318 15.5397C32.8636 15.6602 32.9127 15.7569 32.923 15.8933C32.9432 16.1586 33.0046 16.2462 33.0662 16.3413C33.158 16.4831 33.2659 16.8155 33.5229 16.8932C33.5625 16.9052 33.5773 16.8801 33.5901 16.8555C33.642 16.7557 33.7387 16.6111 33.8761 16.4442C33.9755 16.3236 34.2315 16.042 34.4044 15.8333C34.5076 15.7088 34.6396 15.4748 34.8338 15.2302C35.008 15.0108 35.2239 14.7443 35.3932 14.4327C35.5077 14.2218 35.6117 14.0094 35.6505 13.76C35.6821 13.5572 35.7605 13.2678 35.8174 12.8953C35.8648 12.5848 35.913 12.3532 35.9203 12.161C35.9281 11.9538 35.9103 11.6373 35.8206 11.3263C35.7452 11.0649 35.6623 10.6538 35.2882 10.3383C35.0364 10.1259 34.728 9.9374 34.438 9.857C34.2439 9.80317 33.906 9.75679 33.5447 9.78274C33.3712 9.7952 33.1797 9.79743 32.9651 9.93712C32.5678 10.1957 32.2753 10.4633 32.2161 10.7265C32.1486 11.0265 32.0618 11.2937 32.0974 11.5197C32.1333 11.7482 32.1889 11.9452 32.2206 12.1181C32.2839 12.4624 32.2509 12.7068 32.3397 12.9901C32.4192 13.2434 32.5082 13.4781 32.6534 13.8705C32.7288 14.0743 32.8588 14.3594 32.9591 14.8766C33.0065 15.1209 33.0615 15.5535 33.1696 16.0314Z" fill="#8A909A"/>
<path d="M36.5463 11.7505C36.4653 12.2762 36.9588 12.7402 36.7867 13.295C36.565 13.8583 36.3603 13.8242 36.087 14.5903C35.8213 15.2952 35.1855 15.6211 35.187 15.8865C35.1621 16.1589 34.7676 16.0429 34.5899 16.3764C34.3958 16.7352 34.2166 16.8413 33.9678 17.0002C32.3448 17.6405 32.9014 15.7112 32.5218 15.6175C34.0218 14.5973 33.0798 16.0407 33.2925 16.1238C33.3072 16.2053 33.308 16.2744 33.3016 16.3306C33.2956 16.384 33.2045 16.415 33.1782 16.3747C33.1074 16.2663 32.9812 16.1135 32.7827 15.9555C32.2389 15.7806 33.2213 14.9792 33.2608 15.8065C33.268 16.2239 34.371 16.3784 33.282 16.3435C33.8988 15.7583 33.4005 15.5806 34.2977 14.8616C35.1418 14.3017 34.6626 14.0586 34.7021 13.3043C34.8343 12.4112 35.1738 11.5889 34.9514 11.1775C34.8382 10.9581 34.4384 10.678 33.902 10.5843C33.0782 10.5733 33.1949 10.4288 32.8749 11.37C32.7712 11.6538 32.8496 13.2977 32.9758 13.8011C33.0737 14.3967 33.0851 14.5627 33.2526 15.1103C33.3467 15.4218 33.3775 15.848 33.3149 16.2423C33.2871 16.4379 33.1681 16.442 33.0646 16.2618C32.9189 16.004 32.928 15.7667 32.7635 15.6484C32.4349 15.4138 32.3125 15.2848 32.4141 14.9428C32.5072 14.5876 32.1012 14.5509 32.0819 14.3721C32.0573 14.1676 32.2529 14.1648 31.7222 13.0842C31.4126 11.8793 31.186 11.1515 31.3271 10.6952C31.3259 10.027 32.4881 9.01755 33.4958 8.99297C34.3068 8.75339 36.1405 9.58876 36.5075 10.5064C36.8785 11.2026 36.6088 11.1859 36.5463 11.7505Z" fill="#8A909A"/>
<path d="M35.7987 20.3678C35.9869 20.285 35.1274 19.9953 35.0689 19.8127C34.9465 19.569 34.8572 19.0387 34.596 19.001C34.2099 18.9367 33.4271 18.6326 33.2499 18.738C33.0151 18.8506 32.9879 18.4432 32.6476 18.5493C32.5088 18.6651 32.4631 18.6397 32.1474 18.8305C31.8558 18.8901 31.6295 19.9458 31.9522 20.23C32.1884 20.4551 32.2344 20.797 32.4473 21.0029C32.498 21.0525 32.5531 21.1034 32.5879 21.1503C32.6218 21.195 32.5737 21.2784 32.5262 21.2659C32.3981 21.2387 32.1807 21.1817 31.9093 21.1167C31.3771 20.9723 31.4497 20.6045 31.2258 20.0683C30.9326 19.4747 30.8361 18.7615 31.522 18.1167C32.3328 17.3909 32.6333 17.0217 33.772 17.4836C34.4713 17.9347 35.2754 17.3238 36.1977 18.0748C37.2905 18.7532 37.7178 21.1575 36.608 21.8307C35.5982 22.5922 34.8995 22.4198 33.9787 22.4528C33.163 22.4215 31.4754 22.5726 30.7867 21.1384C30.1444 19.8 30.8836 18.2763 31.7666 17.8591C32.3786 17.6782 32.5976 17.6767 33.1735 17.5616C33.5082 17.4959 33.9734 17.5124 34.3707 17.6626C34.5711 17.7411 34.5211 17.8527 34.3312 17.9107C34.0497 17.9979 33.8111 17.9575 33.6711 18.1055C33.3961 18.4023 33.2586 18.5137 32.9209 18.3819C32.583 18.2618 32.5796 18.6663 32.4275 18.6895C32.2392 18.8078 32.1288 18.2181 31.9449 19.2447C31.8331 20.1662 32.2292 20.3554 32.3043 20.4352C32.4599 20.5468 32.8583 20.9544 33.525 20.8677C34.0399 20.8273 35.8306 20.6475 35.4991 20.5492C35.6354 20.1962 35.6121 20.8094 35.7987 20.3678Z" fill="#8A909A"/>
<path d="M31.8087 3.7116C28.9379 3.28876 27.6694 4.94759 23.9918 5.38945C20.7638 5.65526 20.0169 4.98922 16.304 5.62063C14.1336 5.99313 10.4761 9.28403 9.40516 10.3806C8.5139 11.6446 7.63341 10.4308 7.06513 12.9625C6.61052 14.9152 6.47101 16.3169 6.36358 18.3517C6.31165 19.3557 6.47213 21.3938 7.57516 23.2427C7.70534 23.4815 7.82839 23.7038 7.97887 23.9635C8.40306 25.0466 7.46114 25.2195 7.29715 25.3493C6.74962 25.6009 6.30687 25.7661 5.8967 25.9827C5.012 26.4542 4.30919 26.8299 3.74308 27.1821C3.19572 27.5261 2.46462 27.7213 2.28704 27.8571C2.04021 27.9058 3.32274 27.7436 2.0239 26.4856C1.61908 26.3712 1.82217 26.4546 1.82947 26.4396C1.91853 26.439 2.05945 26.4247 2.19573 26.4094C2.47053 26.3782 2.7629 26.3398 3.05013 26.3048C4.17891 26.1487 5.41524 26.1089 6.14382 26.062C6.58479 25.9739 7.13258 25.9594 7.36629 26.0014C7.62899 25.9903 7.70385 26.2279 7.36127 26.3258C6.58658 26.4649 5.42194 26.8248 4.13336 27.4555C3.52228 27.7473 3.03116 27.9358 2.55461 28.0567C2.29293 28.112 2.17356 28.1804 1.67194 28.1619C1.57738 28.143 1.50044 28.1832 1.19129 27.9952C0.671611 27.7503 0.88994 26.694 0.992228 26.7132C1.11816 26.5554 1.23854 26.4757 1.30529 26.4309C1.45175 26.3357 1.5762 26.2764 1.70759 26.2205C2.78231 25.871 3.45709 25.7055 5.003 24.8253C7.19175 23.4193 6.17195 24.9851 5.27237 22.984C4.37401 21.3254 3.98478 19.6938 4.01439 17.4432C4.06347 15.1787 4.01415 13.7533 4.43857 11.9661C4.27412 10.8065 6.50121 7.87147 8.87922 6.67774C13.5383 3.61388 15.1498 1.74135 20.7103 0.874867C25.8322 -0.141708 35.9396 -1.00455 38.5931 2.26762C41.8388 4.32254 45.8911 9.01251 46.2535 14.8416C46.271 17.5107 46.4708 21.0707 43.0582 24.0289C40.874 25.836 38.5894 27.9175 35.7845 29.2336C29.3527 31.7588 21.7522 31.2552 17.9711 30.2937C14.335 29.4435 13.425 28.895 10.2014 27.6727C9.03977 27.3455 8.59396 26.3239 7.4021 26.7267C6.21525 26.9937 4.88253 27.1337 3.6989 27.1906C2.48336 27.2244 2.72512 26.9164 3.84443 26.5472C5.54231 26.0103 6.76591 25.7532 7.7973 25.247C11.0279 25.1997 10.69 25.4493 12.8076 26.71C14.6492 27.8658 15.7641 27.2394 17.0625 27.601C18.0773 27.8108 18.1495 28.8516 24.5702 28.3315C27.8866 27.957 30.2364 27.0722 32.1582 26.6766C33.268 26.3122 34.7907 25.2458 35.7325 24.5576C37.283 23.4458 42.7158 20.3658 42.3961 17.3482C43.0448 13.4682 39.3047 7.01821 36.3373 5.70306C33.35 4.07273 34.8035 4.23955 31.8087 3.7116Z" fill="#8A909A"/>
</g>
<defs>
<clipPath id="clip0_53_2888">
<rect width="46" height="32" fill="white"/>
</clipPath>
</defs>
</svg>
