<svg width="46" height="32" viewBox="0 0 46 32" fill="none" xmlns="http://www.w3.org/2000/svg">
<path d="M12.3338 15.4594C13.0453 14.8585 13.1975 13.6936 14.614 12.8829C15.9875 12.3143 16.267 12.5411 17.8148 12.2108C17.8801 12.1077 19.3619 12.1976 19.4761 12.9175C19.7006 13.5002 19.5954 13.9099 19.5669 14.244C19.4659 15.1142 19.2072 15.4676 19.1177 15.8948C18.839 16.805 18.3858 16.4463 17.7435 17.24C16.934 17.9093 16.4474 18.2252 15.4447 18.2838C14.9796 18.0939 14.0646 19.0136 13.2212 17.8476C13.2158 16.6324 13.8915 16.099 14.2529 15.7087C15.1539 15.0715 16.1129 14.9677 16.7705 14.8514C16.9645 14.8199 17.1077 14.7954 17.2301 14.7842C17.3445 14.7737 17.3541 14.8717 17.2478 14.9164C16.9615 15.0445 16.5443 15.2083 16.0491 15.5046C15.3753 16.1502 14.8141 15.7323 14.148 16.7467C13.5616 18.3291 14.008 17.2699 15.6247 17.2836C16.8916 16.8438 17.4197 16.1861 18.1339 14.72C18.7888 12.5558 18.2338 13.6952 16.3431 14.3461C14.9299 14.7868 12.1699 17.3502 12.1949 17.9436C11.8522 18.7853 13.5866 19.8146 14.6972 19.1547C16.4125 18.3364 18.8044 16.7907 19.7556 15.9087C20.5017 14.6477 20.3525 11.0303 19.0474 10.9091C17.7528 10.9012 17.2733 10.7162 16.1 11.2542C15.4006 11.5612 14.5278 12.0265 13.7483 12.5262C13.3586 12.7664 13.3517 12.6158 13.6666 12.2699C14.1269 11.7732 14.6075 11.4581 14.8765 11.1765C15.4197 10.6115 15.6053 10.3561 16.624 10.2516C17.6867 10.2419 17.9475 9.92822 18.4352 9.89772C18.8418 10.0642 19.9507 9.22548 21.325 12.1508C21.8194 14.9052 21.4046 16.9516 20.3491 17.6609C19.4181 18.3558 17.8952 19.1681 16.2797 20.1056C15.4391 21.6317 9.47838 20.2433 10.5351 17.6014C11.0161 15.7058 11.5636 16.0697 12.3338 15.4594Z" fill="#615DFF"/>
<path d="M27.0854 15.2112C27.2522 15.3348 27.3428 14.7035 27.6239 14.762C27.873 14.8234 27.9402 15.1399 28.2071 15.042C28.474 14.9442 28.7669 15.1376 28.8729 14.9943C28.9777 14.8509 29.0342 15.2474 29.1864 15.1404C29.318 15.0308 29.5076 15.0714 29.6522 15.1941C29.8129 15.3154 30.2826 15.4049 30.4428 15.237C30.6065 15.0686 30.7921 15.3378 30.9266 15.3905C30.9719 15.4079 31.0006 15.4364 31.0228 15.4654C31.0438 15.4931 31.0391 15.5887 31.018 15.596C30.959 15.614 30.8957 15.675 30.7886 15.7958C30.6082 16.0213 30.5747 15.7855 30.323 15.9082C30.0715 16.0308 29.9267 16.2572 29.6244 16.1308C29.3439 15.9999 29.3289 16.6209 28.8646 16.3229C28.4062 16.0271 28.4205 16.6513 28.01 16.7744C27.6374 16.8929 26.9796 16.6231 26.7596 16.6609C26.5297 16.7057 26.1257 16.8184 25.7817 16.7475C25.4428 16.6824 24.9116 16.9203 24.6168 16.7954C24.1859 16.7043 23.5624 16.524 23.3112 16.4021C23.0475 16.2805 22.9844 16.253 22.7324 16.3308C22.5885 16.3755 22.3872 16.3354 22.2187 16.1751C22.1333 16.0944 22.1531 15.9819 22.238 15.928C22.3627 15.849 22.4644 15.901 22.5278 15.7601C22.6547 15.4784 22.707 15.3703 22.8704 15.5326C23.0326 15.6948 23.1061 15.3224 23.2003 15.3642C23.2932 15.4059 23.3006 15.6261 23.769 15.4504C24.2183 15.2718 24.3554 15.1887 24.6733 15.1311C24.8122 15.0857 25.2227 15.2481 25.5174 15.1637C25.8319 15.0812 26.3749 15.1044 26.6325 14.971C26.8696 14.8407 26.9211 15.0854 27.0854 15.2112Z" fill="#615DFF"/>
<path d="M26.5625 16.5398C26.4424 16.8316 27.0579 16.8021 27.0166 17.2303C26.9591 17.5909 26.6362 17.6394 26.7188 17.9934C26.7996 18.3461 26.5815 18.6942 26.7146 18.85C26.8457 19.0288 26.4471 19.0377 26.521 19.2739C26.593 19.5132 26.5232 19.6485 26.3768 19.8155C26.2311 19.9777 26.081 20.5653 26.2446 20.7646C26.3999 20.9447 26.1608 21.2419 26.0573 21.3871C26.0299 21.4267 25.998 21.4554 25.966 21.4789C25.9357 21.5009 25.8409 21.4864 25.837 21.4576C25.8252 21.3786 25.8006 21.2652 25.6821 21.1611C25.4606 20.9878 25.6842 20.8872 25.5832 20.5625C25.4852 20.22 25.2764 20.0232 25.4573 19.6251C25.6362 19.2505 25.0596 19.1871 25.3918 18.6848C25.724 18.1546 25.103 18.0912 24.998 17.6108C24.89 17.2373 25.1486 16.3715 25.0993 16.1068C25.0434 15.7991 24.9191 15.4235 24.9349 14.9409C24.9521 14.4673 24.6888 13.8737 24.8212 13.3433C24.95 12.8139 25.1422 12.0969 25.2742 11.7682C25.4059 11.4398 25.4361 11.3614 25.3732 11.0397C25.3391 10.8547 25.3845 10.5962 25.5855 10.3904C25.6921 10.2937 25.7876 10.3676 25.8236 10.4611C25.8793 10.6048 25.8219 10.7313 25.957 10.8167C26.2287 10.989 26.3336 11.0571 26.1627 11.2507C25.9921 11.4456 26.3613 11.5513 26.3156 11.6663C26.2708 11.7812 26.0477 11.7775 26.2121 12.3726C26.3786 12.966 26.4335 13.2806 26.4832 13.4927C26.5323 13.7114 26.3748 14.1637 26.4881 14.5113C26.5979 14.8433 26.6503 15.6377 26.7865 15.9476C26.9273 16.2569 26.6817 16.28 26.5625 16.5398Z" fill="#615DFF"/>
<path d="M25.5469 15.336C25.7953 15.2892 25.4933 14.7352 25.7535 14.6042C26.0157 14.473 26.2659 14.6766 26.4587 14.4097C26.6635 14.1349 27.0506 14.1134 27.0528 13.9368C27.0504 13.7648 27.3237 14.0571 27.3915 13.8663C27.4563 13.6763 27.5698 13.6312 27.7779 13.5982C27.9822 13.5699 28.43 13.2385 28.4177 13.0154C28.3896 12.7911 28.798 12.7391 28.9083 12.731C28.9425 12.7224 28.9815 12.7137 29.019 12.7093C29.0545 12.705 29.1331 12.7599 29.1258 12.7846C29.113 12.8513 29.0516 12.9772 29.0769 13.1225C29.1123 13.4021 28.9282 13.2922 28.8025 13.58C28.6945 13.8625 28.7426 14.1421 28.4013 14.299C28.0637 14.4442 28.4164 14.965 27.7793 15.0509C27.1933 15.0915 27.5693 15.5868 27.3085 15.9417C27.0483 16.2995 26.3643 16.4991 26.1307 16.7276C25.9037 16.9559 25.6455 17.2437 25.2805 17.4266C24.9201 17.6065 24.6456 18.0869 24.2206 18.2426C23.7853 18.3991 23.2527 18.6549 22.9431 18.7907C22.6441 18.909 22.5764 18.9364 22.4135 19.1861C22.3176 19.3275 22.1143 19.4632 21.8335 19.4298C21.6788 19.3998 21.7292 19.2675 21.7408 19.1998C21.7901 19.0821 21.9102 19.0485 21.8716 18.8986C21.7926 18.5982 21.7571 18.4856 21.9937 18.4902C22.2318 18.4924 22.0366 18.1637 22.1374 18.1255C22.2464 18.0794 22.3667 18.2664 22.6631 17.7364C22.9786 17.2123 23.1924 16.9999 23.3285 16.8356C23.4678 16.6714 23.9125 16.5634 24.1331 16.2997C24.3523 16.0372 24.9361 15.6676 25.0365 15.4335C25.1385 15.1979 25.3002 15.3796 25.5469 15.336Z" fill="#615DFF"/>
<path d="M27.1071 15.9771C27.1372 16.2244 27.7122 15.9663 27.809 16.2182C27.907 16.472 27.6822 16.7023 27.9274 16.895C28.1764 17.0917 28.183 17.489 28.3719 17.5491C28.567 17.617 28.2148 17.8111 28.3853 17.9197C28.5526 18.0237 28.5739 18.1475 28.5518 18.3779C28.5367 18.6739 28.6323 18.9898 28.8916 19.0216C29.1159 19.0239 29.0391 19.296 29.1475 19.4877C29.1641 19.5366 29.1604 19.5792 29.1514 19.6158C29.1426 19.6507 29.0616 19.7019 29.0432 19.6892C28.9861 19.6442 28.9298 19.663 28.7514 19.6684C28.4517 19.6981 28.5657 19.4891 28.3053 19.3685C28.0151 19.2599 27.651 18.9646 27.697 18.7624C27.6825 18.4634 27.0715 18.6017 27.1771 18.1321C27.2299 17.6099 26.6916 17.9461 26.3593 17.6677C26.0165 17.379 25.9213 16.7365 25.7238 16.552C25.5281 16.3703 25.2374 16.141 25.0636 15.8452C24.8843 15.5496 24.3632 15.3346 24.1728 14.932C23.9768 14.5265 23.6815 13.9572 23.5874 13.6673C23.4917 13.3807 23.4662 13.311 23.2299 13.1734C23.0938 13.0944 22.982 12.9219 22.9636 12.6855C22.9538 12.5663 23.0432 12.4954 23.1478 12.5194C23.3006 12.555 23.3419 12.6709 23.4907 12.6214C23.7888 12.5234 23.9112 12.495 23.9131 12.735C23.9139 12.9743 24.2409 12.7808 24.2784 12.8842C24.316 12.9863 24.1515 13.1398 24.6162 13.3806C25.0844 13.6222 25.3111 13.7869 25.4739 13.8933C25.6393 14.002 25.7753 14.4062 26.0551 14.5812C26.3568 14.7712 26.7535 15.3231 27.0054 15.4432C27.2613 15.5679 27.0755 15.7284 27.1071 15.9771Z" fill="#615DFF"/>
<path d="M36.4135 11.0724C36.4019 11.5153 37.0913 11.9352 36.8966 12.6259C36.728 13.1197 36.4013 13.1823 36.3528 13.744C36.3497 14.4291 35.692 14.9978 35.6489 15.2755C35.589 15.5806 35.2266 15.3751 35.1135 15.6796C35.0135 15.9839 34.7667 16.2405 34.4668 16.3755C34.277 16.5416 32.9971 17.2248 32.8365 16.5845C32.4758 16.3896 32.7154 15.757 32.6859 15.5284C32.6844 15.4526 32.6879 15.3819 32.7073 15.3253C32.7261 15.2735 32.8226 15.2723 32.8374 15.3093C32.8833 15.415 32.9892 15.5264 33.1666 15.7728C33.4116 16.1643 33.2516 16.1729 33.5562 16.5023C33.8669 16.622 33.1995 15.9689 33.8702 15.6385C34.2877 15.3645 34.0303 14.6771 34.7234 14.2904C35.4252 13.7823 34.7435 13.4829 34.8171 12.7027C34.9696 11.8033 34.9899 11.1106 34.823 10.9768C34.5492 10.7693 34.1922 10.6173 33.5949 10.5853C33.2752 10.4253 32.9686 11.173 32.8743 11.4207C32.9073 12.2344 32.8909 13.3629 33.0236 13.9249C33.1086 14.5111 33.1019 14.6617 33.2632 15.1753C33.3545 15.4686 33.3838 15.8732 33.3165 16.2482C33.2863 16.4346 33.1681 16.4408 33.0668 16.2705C32.9243 16.0271 32.9349 15.8016 32.7713 15.6913C32.4451 15.4719 32.3207 15.3514 32.4284 15.0167C32.5299 14.6775 32.1273 14.6365 32.1168 14.4701C32.1041 14.2944 32.2978 14.2401 31.7892 13.302C31.3654 11.9196 31.1912 11.9067 31.2518 11.0383C31.2179 10.6314 31.9766 9.46385 32.9093 9.09132C33.8733 8.69545 35.4626 9.26645 36.0339 9.79115C36.6878 10.3777 36.4065 10.6123 36.4135 11.0724Z" fill="#615DFF"/>
<path d="M35.7987 20.3678C35.9869 20.285 35.1274 19.9953 35.0689 19.8127C34.9465 19.569 34.8572 19.0387 34.596 19.001C34.2099 18.9367 33.4271 18.6326 33.2499 18.738C33.0151 18.8506 32.9879 18.4432 32.6476 18.5493C32.5088 18.6651 32.4631 18.6397 32.1474 18.8305C31.8558 18.8901 31.6295 19.9458 31.9522 20.23C32.1884 20.4551 32.2344 20.797 32.4473 21.0029C32.498 21.0525 32.5531 21.1034 32.5879 21.1503C32.6218 21.195 32.5737 21.2784 32.5262 21.2659C32.3981 21.2387 32.1807 21.1817 31.9093 21.1167C31.3771 20.9723 31.4497 20.6045 31.2258 20.0683C30.9326 19.4747 30.8361 18.7615 31.522 18.1167C32.3328 17.3909 32.6333 17.0217 33.772 17.4836C34.4713 17.9347 35.2754 17.3238 36.1977 18.0748C37.2905 18.7532 37.7178 21.1575 36.608 21.8307C35.5982 22.5922 34.8995 22.4198 33.9787 22.4528C33.163 22.4215 31.4754 22.5726 30.7867 21.1384C30.1444 19.8 30.8836 18.2763 31.7666 17.8591C32.3786 17.6782 32.5976 17.6767 33.1735 17.5616C33.5082 17.4959 33.9734 17.5124 34.3707 17.6626C34.5711 17.7411 34.5211 17.8527 34.3312 17.9107C34.0497 17.9979 33.8111 17.9575 33.6711 18.1055C33.3961 18.4023 33.2586 18.5137 32.9209 18.3819C32.583 18.2618 32.5796 18.6663 32.4275 18.6895C32.2392 18.8078 32.1288 18.2181 31.9449 19.2447C31.8331 20.1662 32.2292 20.3554 32.3043 20.4352C32.4599 20.5468 32.8583 20.9544 33.525 20.8677C34.0399 20.8273 35.8306 20.6475 35.4991 20.5492C35.6354 20.1962 35.6121 20.8094 35.7987 20.3678Z" fill="#615DFF"/>
<path d="M31.8251 2.80058C29.0286 2.56116 27.2423 3.41361 23.7955 3.9455C20.522 4.34117 19.924 4.11643 16.1617 4.6508C13.0252 5.26808 10.0802 8.66738 8.80413 9.63443C7.70225 10.8012 7.03973 10.2998 6.40677 12.7141C5.755 14.8642 5.71856 16.3443 5.79621 18.4141C5.83644 19.4404 6.11425 21.5678 7.26498 23.4222C8.34864 24.3585 6.44515 25.3949 5.74219 25.6672C4.86548 26.1192 4.11967 26.4782 3.56817 26.7619C3.02661 27.048 2.35353 27.1728 1.98074 27.4327C1.32042 26.3087 2.74264 27.0029 3.15695 26.7369C4.28924 26.4962 5.41916 26.354 6.18878 26.2512C6.65453 26.1276 7.11273 26.09 7.38595 26.0832C7.65712 26.0288 7.65629 26.1453 7.34382 26.2252C6.55445 26.3389 5.38215 26.6255 4.04174 27.1001C3.41284 27.3176 2.91625 27.4698 2.45709 27.573C2.21806 27.6209 2.04529 27.6771 1.71524 27.6643C0.640288 26.5449 1.89426 26.8312 1.91358 26.6598C2.82627 26.3444 3.63804 26.0806 5.22489 25.2643C5.93957 24.8704 7.18427 24.2936 7.07155 24.3306C6.87449 24.3751 6.29726 23.2586 5.9572 22.6519C5.21192 21.1635 4.83497 19.5608 4.77314 17.3985C4.94615 13.2707 4.27444 10.7088 9.46098 7.3972C14.0467 3.85436 15.1913 3.1179 20.9229 2.30991C26.4002 1.4031 35.3021 0.0242326 37.9741 3.19991C41.0377 5.2093 44.6418 9.51831 45.1099 14.9153C45.2241 17.4642 45.1279 20.825 42.3366 23.1139C40.1061 24.9178 37.8562 26.9307 35.2482 28.2554C29.6265 30.7027 21.6848 30.6439 18.0354 29.8335C14.4159 29.1621 13.5516 28.6804 10.3382 27.3442C8.44361 25.9746 6.08571 26.7418 3.67219 27.0628C2.48879 27.2076 2.74554 27.0601 3.89069 26.7639C5.59401 26.34 6.9048 25.9907 7.85146 25.703C10.2012 25.8661 10.3921 26.4041 12.4919 27.4235C14.4851 28.3946 15.554 28.2949 16.8497 28.5943C18.0321 28.7699 18.034 29.495 24.6251 29.213C31.1894 28.5472 34.4407 27.115 36.4211 25.5926C38.212 24.3158 43.5534 21.292 43.5202 17.4368C44.3564 13.3061 40.1049 6.09651 37.0532 4.62269C34.1793 2.81141 34.6494 3.08109 31.8251 2.80058Z" fill="#615DFF"/>
</svg>
