<svg width="32" height="32" viewBox="0 0 32 32" fill="none" xmlns="http://www.w3.org/2000/svg">
<path fill-rule="evenodd" clip-rule="evenodd" d="M17.5878 3.19C17.9518 3.19633 17.9771 3.20266 18.186 3.3071C18.3252 3.37673 18.4772 3.4875 18.5943 3.60776C18.705 3.7217 18.8221 3.87994 18.9804 4.20908L18.9709 4.71546C18.9645 5.06676 18.974 5.2883 19.0057 5.44338C19.031 5.56364 19.1101 5.80734 19.1798 5.9814C19.2494 6.15547 19.4266 6.58906 19.5754 6.94668C19.7209 7.30431 19.9773 7.91513 20.145 8.30757C20.3128 8.70001 20.5216 9.20956 20.7685 9.85835V10.3584C20.7685 10.6559 20.7495 10.9755 20.7179 11.1559C20.6926 11.3205 20.6261 11.5864 20.5755 11.7414C20.5216 11.8965 20.4046 12.1719 20.3159 12.3523C20.2242 12.5295 20.1419 12.6751 20.1292 12.6751C20.1134 12.6751 20.1039 12.6624 20.1039 12.6434C20.1039 12.6244 19.7273 11.8522 19.2684 10.9249C18.8063 10.0008 18.0088 8.41518 17.496 7.40559C16.9802 6.396 16.4485 5.34843 16.3124 5.07942C16.0782 4.60786 16.0687 4.58254 16.0687 4.36733C16.0719 4.19326 16.0877 4.10781 16.1542 3.97172C16.2016 3.87678 16.2997 3.72803 16.3789 3.63941C16.4548 3.55396 16.5941 3.44003 16.689 3.38939C16.784 3.33558 16.939 3.26912 17.034 3.23747C17.1701 3.19317 17.2903 3.18367 17.5878 3.19V3.19ZM20.6736 3.81348C20.8571 3.81348 21.009 3.83247 21.1483 3.87678C21.2622 3.91159 21.4236 3.98754 21.5122 4.04451C21.5977 4.10148 21.7211 4.21225 21.7844 4.29137C21.8477 4.36733 21.9712 4.57304 22.0598 4.74711C22.1452 4.92118 22.3604 5.37692 22.5345 5.75986C22.7086 6.14281 23.0061 6.82009 23.1991 7.26317C23.389 7.70625 23.639 8.32023 23.753 8.62406C23.8637 8.92788 24.003 9.314 24.0536 9.47857C24.1074 9.64314 24.1834 9.92798 24.2214 10.1115C24.2847 10.3932 24.2942 10.5388 24.2973 11.0452C24.2973 11.4977 24.2815 11.7161 24.2404 11.9313C24.2087 12.0864 24.1264 12.4504 24.06 12.7384C23.9903 13.0264 23.8701 13.5739 23.7878 13.9568C23.7087 14.3398 23.5378 15.1247 23.408 15.6975C23.2751 16.2703 23.1137 16.9761 23.0409 17.2641C22.9712 17.5521 22.8795 17.9002 22.8352 18.0395C22.7909 18.1788 22.7117 18.3845 22.6611 18.4984C22.6105 18.6123 22.4934 18.8181 22.4016 18.9573C22.3098 19.0966 22.1294 19.3276 21.9996 19.47C21.8699 19.6124 21.3888 20.0903 20.9268 20.5302C20.4647 20.9702 19.8254 21.5841 19.5089 21.9006C19.1892 22.2139 18.8411 22.5811 18.7335 22.714C18.6259 22.8469 18.4613 23.0748 18.3727 23.2204C18.2809 23.3659 18.1575 23.597 18.0942 23.7362C18.0341 23.8755 17.9455 24.1318 17.8125 24.6224L17.7777 28.6544L17.6321 28.8L13.3533 28.8095C9.96053 28.8158 9.05538 28.8095 8.98259 28.7779C8.93195 28.7557 8.87498 28.7082 8.856 28.6734C8.83068 28.6291 8.81485 27.8917 8.78637 23.8312L8.69775 23.3406C8.65028 23.0716 8.52052 22.4893 8.40659 22.0494C8.29582 21.6126 8.16289 21.1189 8.10909 20.9575C8.05845 20.7993 7.98566 20.5397 7.94768 20.3815C7.91287 20.2232 7.8559 19.9384 7.82109 19.7485C7.78944 19.5586 7.74513 19.2137 7.72614 18.989C7.70399 18.7548 7.69766 18.3655 7.70715 18.087C7.71981 17.78 7.7483 17.4825 7.78944 17.2958C7.82425 17.1312 7.90021 16.8527 7.95718 16.6786C8.01098 16.5045 8.16922 16.1406 8.30215 15.8716C8.43823 15.6026 8.63762 15.2386 8.74839 15.0645C8.86233 14.8905 9.22312 14.3714 9.55226 13.9094C9.88141 13.4473 10.4416 12.6466 10.7992 12.1307C11.1568 11.6148 11.679 10.8521 11.9607 10.4375C12.2392 10.0229 12.5241 9.63365 12.5937 9.57351C12.6602 9.51022 12.8057 9.39945 12.9197 9.32033C13.0336 9.24437 13.2045 9.14942 13.2995 9.10511C13.3944 9.06397 13.5653 9.01017 13.6792 8.98169C13.809 8.9532 13.9799 8.94054 14.1381 8.94687C14.3533 8.95953 14.423 8.97536 14.5939 9.0703C14.7046 9.13043 14.8471 9.22221 14.9104 9.27602C14.98 9.33298 15.0876 9.49439 15.1889 9.68745C15.2775 9.85835 15.3756 10.0862 15.4072 10.1907C15.4452 10.3236 15.4642 10.4913 15.4674 11.1085L15.3345 11.3775C15.2617 11.5262 15.037 11.925 14.8344 12.2636C14.6287 12.6023 14.4166 12.9441 14.3597 13.0232C14.3027 13.1023 13.9736 13.6435 13.6286 14.2258C13.2836 14.8082 12.9355 15.4158 12.8595 15.5709C12.7456 15.7988 12.714 15.8969 12.7045 16.0615C12.6981 16.1754 12.7076 16.3273 12.7266 16.4033C12.7488 16.4856 12.8121 16.5868 12.8944 16.6723C12.9766 16.7546 13.0937 16.8305 13.1887 16.8653C13.2741 16.8938 13.4545 16.9286 13.5843 16.9381C13.7425 16.9508 13.9324 16.9381 14.154 16.9002C14.3375 16.8717 14.6825 16.7894 14.9199 16.7229C15.1604 16.6565 15.5655 16.5299 15.8218 16.4444C16.0814 16.3621 16.5181 16.2007 16.7966 16.0931C17.0751 15.9823 17.5245 15.7798 17.7935 15.6469C18.0626 15.5108 18.455 15.2892 18.6639 15.15C18.8728 15.0107 19.1639 14.7924 19.3127 14.6626C19.4614 14.5328 19.6576 14.3429 19.7494 14.2385C19.8444 14.1372 20.0216 13.9157 20.1482 13.7511C20.2748 13.5865 20.4552 13.3144 20.5533 13.1498C20.6514 12.9852 20.7875 12.7194 20.8571 12.5643C20.9268 12.4092 21.0249 12.1434 21.0787 11.9788C21.1325 11.8142 21.2084 11.5294 21.2464 11.3458C21.3034 11.0768 21.3192 10.9091 21.3192 10.4597C21.3224 10.0957 21.3065 9.83936 21.2781 9.71593C21.2559 9.61149 21.0945 9.16841 20.9204 8.73483C20.7464 8.30124 20.4963 7.68726 20.3666 7.37394C20.2368 7.06062 20.0216 6.57007 19.8918 6.28206C19.7589 5.9909 19.6197 5.62694 19.5754 5.4592C19.5121 5.21551 19.4994 5.11107 19.5152 4.90535C19.5247 4.7661 19.5532 4.58887 19.5817 4.50975C19.6102 4.43062 19.6766 4.3072 19.7273 4.2344C19.7779 4.15845 19.8792 4.06034 19.952 4.01286C20.0248 3.96223 20.1577 3.89893 20.2463 3.87045C20.3444 3.83563 20.5058 3.81348 20.6736 3.81348V3.81348ZM14.9452 4.7661C15.0401 4.76293 15.1889 4.78192 15.2775 4.80724C15.3629 4.83573 15.4927 4.90219 15.5623 4.96232C15.6731 5.05727 15.9168 5.52566 17.5847 8.84876C18.6259 10.9281 19.5564 12.7447 19.8191 13.1498L19.6576 13.3777C19.5659 13.5043 19.3507 13.7511 19.1734 13.9252C18.9962 14.1024 18.7208 14.3303 18.5531 14.4442C18.3885 14.555 18.1575 14.6942 17.8252 14.8588L17.7492 14.7227C17.7081 14.6499 17.3821 14.0423 17.0277 13.3713C16.67 12.7004 16.2839 11.9756 16.17 11.7573C15.9674 11.3743 15.9611 11.3585 15.9927 11.2351C16.0149 11.1591 16.0212 10.9439 16.0117 10.697C16.0022 10.3806 15.9801 10.2286 15.92 10.0324C15.8756 9.89316 15.7554 9.61466 15.6541 9.41527C15.5148 9.14309 15.4199 9.00384 15.2775 8.85826C15.1667 8.74432 15.0148 8.63355 14.9135 8.58608C14.8059 8.53544 14.6793 8.4405 14.5844 8.33606C14.4989 8.24111 14.3439 8.03539 14.2394 7.88032C14.135 7.72524 13.9641 7.44673 13.8628 7.26317C13.7615 7.07961 13.6444 6.82325 13.6033 6.6935C13.5621 6.56374 13.5178 6.37701 13.5083 6.28206C13.4925 6.16813 13.502 6.02888 13.5368 5.87063C13.5653 5.74087 13.6254 5.56364 13.6729 5.47819C13.7204 5.39591 13.8343 5.25665 13.9229 5.1712C14.0147 5.08575 14.1793 4.97498 14.2869 4.92118C14.3977 4.87054 14.5496 4.81357 14.6287 4.79775C14.7078 4.78192 14.8502 4.76926 14.9452 4.7661V4.7661Z" fill="#615DFF"/>
</svg>
