<svg width="32" height="32" viewBox="0 0 32 32" fill="none" xmlns="http://www.w3.org/2000/svg">
<path d="M19.2343 4.64723C19.3259 4.59945 19.4652 4.54064 19.5459 4.51124C19.6412 4.48183 19.8025 4.47081 20.0041 4.47816C20.2681 4.49286 20.3561 4.51491 20.5723 4.62151C20.7447 4.70604 20.8876 4.81631 21.0049 4.94496C21.1039 5.05522 21.2322 5.2243 21.2872 5.32722C21.3459 5.42646 21.5548 5.91531 21.7565 6.41151C21.9581 6.90772 22.3504 7.86704 22.629 8.54335C22.9039 9.21966 23.4575 10.5833 23.8571 11.5757C24.2567 12.5644 24.5756 13.3804 24.5646 13.3841C24.5573 13.3914 23.9194 12.5056 23.1459 11.4213C22.3724 10.3334 21.0453 8.48087 18.6477 5.16182L18.8567 4.94863C18.974 4.82734 19.1426 4.69502 19.2343 4.64723Z" fill="#CED9DC"/>
<path d="M15.8615 4.87512C15.9532 4.81999 16.0925 4.7575 16.1731 4.73545C16.2538 4.70972 16.4554 4.68767 16.6204 4.68767C16.8147 4.68399 17.0017 4.70604 17.1336 4.75015C17.2509 4.78691 17.4269 4.86777 17.5296 4.93025C17.6285 4.99641 17.8045 5.14344 17.9182 5.26106C18.0355 5.37867 18.743 6.31595 19.4945 7.34879C20.2461 8.37795 21.2579 9.76732 21.7455 10.4363L21.8522 10.5818C22.3359 11.2419 23.003 12.1522 23.3915 12.6784C23.8131 13.2444 24.1944 13.7811 24.2384 13.8729C24.286 13.9648 24.3557 14.1523 24.3997 14.2956C24.4437 14.4353 24.4913 14.6852 24.5023 14.847C24.5133 15.0491 24.5023 15.2292 24.462 15.4167C24.429 15.5674 24.363 15.7732 24.319 15.8761C24.2713 15.9754 23.9891 16.3981 23.6885 16.8134C23.3878 17.2287 22.3834 18.6255 21.4559 19.9193C20.532 21.2131 19.5019 22.6502 19.1683 23.117C18.8383 23.5802 18.534 24.0249 18.4974 24.0984C18.4571 24.1756 18.4021 24.341 18.3727 24.466C18.3288 24.6497 18.3178 24.9879 18.3178 27.5093H12.9654C10.0216 27.5093 7.57635 27.513 7.44804 27.524L7.43704 22.7678C7.42971 19.662 7.44071 17.8168 7.46637 17.4566C7.48837 17.1516 7.53603 16.7472 7.57635 16.5561C7.61301 16.365 7.69733 16.0599 7.76332 15.8761C7.82564 15.6924 7.95395 15.3946 8.0456 15.2145C8.14092 15.0308 8.29856 14.7698 8.4012 14.6264C8.50385 14.4831 9.29571 13.5164 10.1646 12.4762C11.0334 11.436 11.8436 10.4914 11.9609 10.3775C12.0782 10.2598 12.2762 10.1202 12.3972 10.065C12.5841 9.97315 12.6611 9.95845 12.9287 9.95845C13.2037 9.95845 13.266 9.97315 13.4566 10.0687C13.5813 10.1312 13.7426 10.2562 13.8379 10.3628C13.9259 10.462 14.0322 10.609 14.0689 10.6825C14.1092 10.7597 14.1642 10.9251 14.1972 11.0501C14.2412 11.2155 14.2522 11.3588 14.2338 11.5573C14.2192 11.7521 14.1825 11.8992 14.1092 12.0535C14.0322 12.2116 13.6803 12.6526 12.8737 13.5973C12.2542 14.325 11.6896 15.0013 11.6236 15.1043C11.554 15.2035 11.466 15.3799 11.422 15.4902C11.3707 15.6188 11.3377 15.81 11.3267 16.0232C11.312 16.2621 11.323 16.4201 11.3707 16.5929C11.4037 16.7252 11.4843 16.931 11.5466 17.0523C11.6126 17.1736 11.7629 17.3721 11.8839 17.4934C12.0049 17.6147 12.2029 17.7654 12.3238 17.8315C12.4448 17.894 12.6428 17.9712 12.7638 18.0043C12.8847 18.0374 13.1267 18.0631 13.3027 18.0631C13.5776 18.0631 13.9442 17.9969 15.7699 17.6037C17.3756 17.2582 17.9658 17.1185 18.1198 17.0413C18.2334 16.9862 18.3947 16.8832 18.4754 16.8134C18.556 16.7436 18.666 16.6186 18.721 16.5377C18.7797 16.4569 18.8567 16.2878 18.9006 16.1592C18.952 16.0085 18.9776 15.8394 18.9776 15.6629C18.9776 15.4865 18.9483 15.3174 18.8933 15.1594C18.8493 15.0271 18.754 14.8212 18.6844 14.6999C18.5927 14.5456 17.9731 13.8876 16.5031 12.388C15.374 11.2376 14.1935 10.0283 13.8819 9.70483C13.5666 9.37771 13.277 9.05426 13.233 8.98442C13.189 8.91458 13.1267 8.75653 13.0937 8.63524C13.046 8.46984 13.035 8.34487 13.0497 8.13904C13.068 7.94791 13.1047 7.79353 13.178 7.64283C13.233 7.52154 13.354 7.34143 13.442 7.24587C13.5336 7.14663 13.6986 7.02166 13.8086 6.9702C13.9882 6.88199 14.0505 6.87096 14.4135 6.87096C14.7947 6.87096 14.8314 6.87831 15.055 6.98858C15.2493 7.08047 15.3886 7.20176 15.8065 7.63181C16.0852 7.9185 17.7019 9.57619 19.3992 11.3111C21.0929 13.0459 22.5007 14.4721 22.5227 14.4794C22.5483 14.4904 22.6143 14.4757 22.6656 14.45C22.7206 14.428 22.7866 14.3618 22.8123 14.303C22.8563 14.2148 22.8563 14.1927 22.8013 14.1008C22.7683 14.0457 22.508 13.7553 22.2257 13.4503C21.9398 13.1489 21.3055 12.4872 20.8106 11.98C20.3157 11.4765 19.2379 10.3591 18.4094 9.499C17.5846 8.63892 16.5324 7.55462 15.231 6.24611L15.2456 5.95207C15.2566 5.73888 15.286 5.60289 15.352 5.45586C15.4033 5.34559 15.5023 5.19122 15.5719 5.11036C15.6416 5.03317 15.7699 4.92658 15.8615 4.87512Z" fill="#CED9DC"/>
</svg>
