<svg width="32" height="32" viewBox="0 0 32 32" fill="none" xmlns="http://www.w3.org/2000/svg">
<path d="M18.7516 9.59607H22.6677C22.9723 9.59607 23.1245 9.7266 23.1245 9.98767C23.1245 10.1073 23.0865 10.2379 23.0103 10.3793L18.9311 17.4282C18.8115 17.6457 18.6265 17.8306 18.3763 17.9829C18.137 18.1352 17.9086 18.2114 17.691 18.2114H4.3928L1.92896 14.0179C1.86369 13.92 1.83105 13.7841 1.83105 13.61C1.83105 13.3054 1.91264 13.0117 2.07581 12.7289L3.43011 10.3793C3.54976 10.1617 3.72925 9.9768 3.96856 9.82451C4.21875 9.67221 4.45263 9.59607 4.67019 9.59607H8.58623C8.87993 9.59607 9.02678 9.7266 9.02678 9.98767C9.02678 10.1073 8.98871 10.2379 8.91257 10.3793L5.29023 16.6449C5.21408 16.7864 5.17601 16.9169 5.17601 17.0366C5.17601 17.2976 5.3283 17.4282 5.63288 17.4282C5.83956 17.4282 6.06256 17.352 6.30187 17.1997C6.55206 17.0474 6.73699 16.8625 6.85664 16.6449L10.479 10.3793C10.5986 10.1617 10.7781 9.9768 11.0174 9.82451C11.2676 9.67221 11.5015 9.59607 11.7191 9.59607H15.6351C15.9288 9.59607 16.0757 9.7266 16.0757 9.98767C16.0757 10.1073 16.0376 10.2379 15.9614 10.3793L12.3391 16.6449C12.263 16.7864 12.2249 16.9169 12.2249 17.0366C12.2249 17.2976 12.3717 17.4282 12.6654 17.4282C12.883 17.4282 13.1114 17.352 13.3507 17.1997C13.5901 17.0474 13.775 16.8625 13.9055 16.6449L17.5279 10.3793C17.6475 10.1617 17.827 9.9768 18.0663 9.82451C18.3056 9.67221 18.5341 9.59607 18.7516 9.59607Z" fill="#CED9DC"/>
<path d="M22.6628 9.59607C22.9705 9.59608 23.1247 9.7328 23.1248 10.0062C23.1248 10.1315 23.0843 10.2683 23.0046 10.4164L15.071 24.1635C14.9001 24.4595 14.7179 24.6078 14.5242 24.6078C14.4217 24.6077 14.3367 24.556 14.2683 24.4535L12.0115 20.5902C11.9317 20.4763 11.8914 20.322 11.8914 20.1283C11.8914 19.8433 11.9597 19.5806 12.0964 19.3412L17.2595 10.4164C17.3849 10.1885 17.5733 9.99487 17.824 9.83533C18.0861 9.67577 18.3314 9.59609 18.5593 9.59607H22.6628ZM29.7068 9.59607C30.0145 9.59607 30.1686 9.73279 30.1687 10.0062C30.1687 10.1315 30.1292 10.2684 30.0496 10.4164L22.116 24.1635C21.9451 24.4595 21.7627 24.6077 21.5691 24.6078C21.4665 24.6078 21.3806 24.5561 21.3123 24.4535L19.0554 20.5902C18.9757 20.4763 18.9363 20.322 18.9363 20.1283C18.9363 19.8433 19.0046 19.5806 19.1414 19.3412L24.3044 10.4164C24.4298 10.1885 24.6182 9.99484 24.8689 9.83533C25.131 9.67584 25.3763 9.59607 25.6042 9.59607H29.7068Z" fill="#CED9DC"/>
<path d="M21.5062 15.1039C21.5062 15.2069 21.4734 15.3191 21.4079 15.4408L21.2621 15.7053H22.5241L23.4022 14.0769H19.6628L18.9766 15.4408H20.0605C20.1635 15.2536 20.3178 15.0946 20.5237 14.9636C20.7389 14.8326 20.9401 14.7671 21.1272 14.7671C21.3798 14.7671 21.5062 14.8794 21.5062 15.1039Z" fill="#CED9DC"/>
<path d="M21.5534 13.0499C21.5534 12.947 21.5862 12.8347 21.6517 12.713L21.7975 12.4485H20.5355L19.6573 14.0769H23.3968L24.083 12.713H22.999C22.8961 12.9002 22.7417 13.0592 22.5359 13.1902C22.3207 13.3212 22.1195 13.3867 21.9324 13.3867C21.6797 13.3867 21.5534 13.2744 21.5534 13.0499Z" fill="#CED9DC"/>
</svg>
